<?xml version="1.0" encoding="UTF-8" standalone="no" ?>
<!DOCTYPE svg PUBLIC "-//W3C//DTD SVG 1.1//EN" "http://www.w3.org/Graphics/SVG/1.1/DTD/svg11.dtd">
<svg xmlns="http://www.w3.org/2000/svg" xmlns:xlink="http://www.w3.org/1999/xlink" version="1.1" width="1080" height="1080" viewBox="0 0 1080 1080" xml:space="preserve">
<desc>Created with Fabric.js 5.2.4</desc>
<defs>
</defs>
<g transform="matrix(1 0 0 1 540 540)" id="1943c6d5-a5dc-4fff-a295-5ca28be73026"  >
</g>
<g transform="matrix(1 0 0 1 540 540)" id="c4dff934-85d6-4a17-ad27-b2363f0d4d00"  >
<rect style="stroke: none; stroke-width: 1; stroke-dasharray: none; stroke-linecap: butt; stroke-dashoffset: 0; stroke-linejoin: miter; stroke-miterlimit: 4; fill: rgb(255,255,255); fill-rule: nonzero; opacity: 1; visibility: hidden;" vector-effect="non-scaling-stroke"  x="-540" y="-540" rx="0" ry="0" width="1080" height="1080" />
</g>
<g transform="matrix(39.93 0 0 39.93 540 556.17)"  >
<g style="" vector-effect="non-scaling-stroke"   >
		<g transform="matrix(1 0 0 1 2.5 -2.75)"  >
<path style="stroke: none; stroke-width: 1; stroke-dasharray: none; stroke-linecap: butt; stroke-dashoffset: 0; stroke-linejoin: miter; stroke-miterlimit: 4; fill: rgb(2,8,23); fill-rule: nonzero; opacity: 1;" vector-effect="non-scaling-stroke"  transform=" translate(-14.5, -9.25)" d="M 12.5 4.5 C 12.5 4.22385763 12.2761424 4 12 4 C 11.7238576 4 11.5 4.22385763 11.5 4.5 L 11.5 12 C 11.5 12.2044523 11.6244755 12.3883067 11.8143047 12.4642383 L 16.8143047 14.4642383 C 17.070696400000003 14.566794999999999 17.3616816 14.4420871 17.4642383 14.185695299999999 C 17.566795000000003 13.929303599999999 17.442087100000002 13.6383184 17.185695300000003 13.535761699999998 L 12.500000000000004 11.6614835 z" stroke-linecap="round" />
</g>
		<g transform="matrix(1 0 0 1 0 0)"  >
<path style="stroke: none; stroke-width: 1; stroke-dasharray: none; stroke-linecap: butt; stroke-dashoffset: 0; stroke-linejoin: miter; stroke-miterlimit: 4; fill: rgb(2,8,23); fill-rule: nonzero; opacity: 1;" vector-effect="non-scaling-stroke"  transform=" translate(-12, -12)" d="M 12 23 C 18.0751322 23 23 18.0751322 23 12 C 23 5.92486775 18.0751322 1 12 1 C 5.92486775 1 1 5.92486775 1 12 C 1 18.0751322 5.92486775 23 12 23 z M 12 24 C 5.372583 24 0 18.627417 0 12 C 0 5.372582999999999 5.372583 0 12 0 C 18.627417 0 24 5.372583 24 12 C 24 18.627417 18.627417 24 12 24 z" stroke-linecap="round" />
</g>
</g>
</g>
<g transform="matrix(0 0 0 0 0 0)"  >
<g style=""   >
</g>
</g>
<g transform="matrix(0 0 0 0 0 0)"  >
<g style=""   >
</g>
</g>
</svg>