<?xml version="1.0" encoding="UTF-8" standalone="no" ?>
<!DOCTYPE svg PUBLIC "-//W3C//DTD SVG 1.1//EN" "http://www.w3.org/Graphics/SVG/1.1/DTD/svg11.dtd">
<svg xmlns="http://www.w3.org/2000/svg" xmlns:xlink="http://www.w3.org/1999/xlink" version="1.1" width="1080" height="1080" viewBox="0 0 1080 1080" xml:space="preserve">
<desc>Created with Fabric.js 5.2.4</desc>
<defs>
</defs>
<rect x="0" y="0" width="100%" height="100%" fill="transparent"></rect>
<g transform="matrix(1 0 0 1 540 540)" id="1943c6d5-a5dc-4fff-a295-5ca28be73026"  >
</g>
<g transform="matrix(1 0 0 1 540 540)" id="c4dff934-85d6-4a17-ad27-b2363f0d4d00"  >
<rect style="stroke: none; stroke-width: 1; stroke-dasharray: none; stroke-linecap: butt; stroke-dashoffset: 0; stroke-linejoin: miter; stroke-miterlimit: 4; fill: rgb(255,255,255); fill-rule: nonzero; opacity: 1; visibility: hidden;" vector-effect="non-scaling-stroke"  x="-540" y="-540" rx="0" ry="0" width="1080" height="1080" />
</g>
<g transform="matrix(0 0 0 0 0 0)"  >
<g style=""   >
</g>
</g>
<g transform="matrix(0 0 0 0 0 0)"  >
<g style=""   >
</g>
</g>
<g transform="matrix(-0.15 0 0 -0.15 540 540)" id="0e901042-bf16-40ee-b714-469fba8fac9f"  >
<path style="stroke: rgb(2,8,23); stroke-width: 0; stroke-dasharray: none; stroke-linecap: butt; stroke-dashoffset: 0; stroke-linejoin: miter; stroke-miterlimit: 4; fill: rgb(2,8,23); fill-rule: nonzero; opacity: 1;" vector-effect="non-scaling-stroke"  transform=" translate(-3500.12, -3352.44)" d="M 302 6544 C 307 6536 397 6303 764 5340 L 866 5075 L 1795 4207 C 2307 3730 2726 3333 2728 3326 C 2730 3315 2508 3073 1972 2502 C 1903 2429 1842 2371 1835 2374 C 1828 2376 1726 2438 1609 2510 C 1446 2611 1385 2644 1352 2648 L 1308 2653 L 1184 2528 C 1006 2348 999 2377 1280 2095 C 1401 1974 1500 1871 1500 1867 C 1500 1863 1313 1654 1084 1402 C 682 960 667 945 622 934 C 497 906 392 823 338 711 C 309 652 306 635 305 555 C 305 426 332 358 420 270 C 506 182 575 155 705 156 C 785 156 802 160 861 188 C 974 243 1049 338 1083 468 C 1096 518 1103 526 1552 935 C 1804 1163 2013 1350 2017 1350 C 2021 1350 2124 1251 2245 1130 C 2465 911 2466 910 2509 910 C 2551 910 2556 914 2671 1028 C 2788 1144 2808 1176 2796 1223 C 2793 1235 2730 1344 2655 1465 C 2581 1586 2521 1689 2523 1695 C 2526 1706 3492 2610 3500 2610 C 3506 2610 4325 1849 4419 1755 L 4484 1691 L 4405 1563 C 4182 1199 4185 1207 4214 1152 C 4222 1137 4278 1077 4338 1017 C 4444 915 4451 910 4491 910 C 4534 910 4536 912 4755 1130 C 4876 1251 4979 1350 4983 1350 C 4987 1350 5197 1163 5448 934 C 5890 532 5905 517 5916 472 C 5944 347 6026 243 6139 188 C 6198 160 6215 156 6295 156 C 6367 155 6398 160 6449 179 C 6536 212 6619 290 6662 378 C 6692 440 6694 453 6695 545 C 6695 637 6692 650 6663 711 C 6608 823 6503 906 6378 934 C 6333 945 6318 960 5916 1402 C 5687 1654 5500 1863 5500 1867 C 5500 1871 5599 1974 5720 2095 C 6001 2377 5994 2348 5816 2528 L 5692 2653 L 5648 2648 C 5617 2644 5574 2623 5495 2573 C 5435 2535 5334 2473 5271 2435 L 5157 2367 L 5081 2446 C 5000 2531 4370 3204 4307 3274 C 4287 3296 4271 3320 4272 3327 C 4274 3333 4664 3702 5140 4145 C 5616 4589 6035 4982 6072 5018 L 6139 5085 L 6245 5365 C 6394 5755 6654 6434 6679 6497 L 6699 6549 L 6662 6536 C 6632 6525 6066 6309 5822 6214 C 5715 6173 5627 6139 5565 6115 C 5532 6103 5474 6080 5435 6065 C 5316 6019 5245 5993 5234 5989 C 5223 5985 5054 5806 4350 5050 C 3698 4350 3509 4150 3500 4150 C 3491 4150 3338 4312 2655 5045 C 2435 5281 2147 5589 2016 5729 L 1776 5985 L 1666 6028 C 1605 6051 1494 6093 1420 6122 C 1346 6150 1251 6186 1210 6202 C 1169 6218 1113 6240 1085 6250 C 1058 6260 999 6283 955 6300 C 911 6317 853 6340 825 6350 C 798 6360 714 6392 640 6421 C 566 6449 467 6487 420 6505 C 373 6523 326 6541 316 6546 C 305 6550 299 6550 302 6544 z M 1168 6004 L 1662 5815 L 2053 5395 C 2269 5165 2549 4865 2675 4730 C 2802 4595 2959 4426 3025 4355 C 3091 4284 3249 4115 3375 3980 C 3502 3845 3659 3676 3725 3605 C 3791 3534 3949 3365 4075 3230 C 4202 3094 4357 2928 4421 2859 C 4484 2791 4637 2628 4759 2497 C 4882 2366 4980 2257 4978 2256 C 4977 2254 4922 2220 4858 2181 L 4742 2109 L 4667 1989 L 4592 1869 L 2929 3422 C 2014 4276 1216 5021 1154 5078 C 1040 5183 1036 5189 984 5325 C 970 5364 947 5422 935 5455 C 840 5700 675 6132 664 6164 C 653 6193 653 6201 663 6197 C 669 6195 897 6108 1168 6004 z M 6336 6163 C 6324 6130 6139 5645 6063 5450 C 6050 5414 6027 5356 6014 5320 C 6000 5284 5982 5239 5974 5219 C 5962 5193 5706 4947 5049 4334 C 4548 3867 4134 3484 4127 3482 C 4117 3480 3668 3951 3648 3984 C 3641 3996 3674 4033 4329 4734 C 4508 4926 4666 5094 4679 5109 C 4692 5123 4846 5288 5021 5475 L 5339 5815 L 5652 5934 C 5824 6000 5985 6061 6010 6071 C 6035 6081 6098 6105 6150 6125 C 6202 6145 6265 6170 6290 6180 C 6350 6206 6351 6206 6336 6163 z M 3125 2966 C 3249 2851 3349 2754 3348 2750 C 3346 2747 3134 2547 2876 2306 L 2408 1869 L 2333 1989 L 2259 2109 L 2139 2183 L 2019 2258 L 2447 2718 C 2682 2972 2880 3178 2887 3177 C 2894 3176 3001 3081 3125 2966 z M 1554 2308 C 1654 2247 1809 2151 1900 2095 C 1991 2039 2075 1988 2087 1982 C 2099 1975 2152 1899 2206 1813 C 2259 1726 2331 1610 2365 1555 C 2399 1500 2460 1402 2500 1336 L 2572 1218 L 2539 1184 L 2505 1150 L 1901 1754 L 1297 2358 L 1331 2389 C 1349 2406 1366 2420 1369 2420 C 1371 2420 1455 2370 1554 2308 z M 5669 2389 L 5703 2358 L 5099 1754 L 4495 1150 L 4461 1184 L 4428 1218 L 4525 1376 C 4626 1539 4736 1718 4831 1873 L 4885 1961 L 5040 2057 C 5125 2110 5272 2200 5365 2258 C 5459 2315 5555 2375 5580 2391 C 5605 2407 5627 2420 5630 2420 C 5633 2420 5651 2406 5669 2389 z M 1765 1610 L 1875 1500 L 1850 1476 C 1836 1463 1649 1292 1433 1097 L 1042 741 L 1009 784 C 991 807 957 841 934 859 L 891 892 L 1142 1168 C 1611 1683 1644 1720 1650 1720 C 1653 1720 1705 1671 1765 1610 z M 5733 1305 L 6105 896 L 6030 821 L 5955 745 L 5565 1099 C 5351 1293 5164 1463 5150 1476 L 5125 1500 L 5235 1610 C 5295 1671 5348 1719 5353 1717 C 5357 1716 5528 1531 5733 1305 z M 778 721 C 887 665 923 541 858 444 C 770 314 596 323 522 460 C 438 617 619 802 778 721 z M 6395 717 C 6488 664 6525 549 6478 460 C 6425 363 6312 324 6220 372 C 6156 406 6110 477 6110 542 C 6110 689 6270 788 6395 717 z" stroke-linecap="round" />
</g>
<g transform="matrix(NaN NaN NaN NaN 0 0)"  >
<g style=""   >
</g>
</g>
<g transform="matrix(NaN NaN NaN NaN 0 0)"  >
<g style=""   >
</g>
</g>
</svg>