<?xml version="1.0" encoding="UTF-8" standalone="no" ?>
<!DOCTYPE svg PUBLIC "-//W3C//DTD SVG 1.1//EN" "http://www.w3.org/Graphics/SVG/1.1/DTD/svg11.dtd">
<svg xmlns="http://www.w3.org/2000/svg" xmlns:xlink="http://www.w3.org/1999/xlink" version="1.1" width="1080" height="1080" viewBox="0 0 1080 1080" xml:space="preserve">
<desc>Created with Fabric.js 5.2.4</desc>
<defs>
</defs>
<g transform="matrix(1 0 0 1 540 540)" id="a935ddee-abcc-4684-9e91-1cd9d86f7fca"  >
</g>
<g transform="matrix(1 0 0 1 540 540)" id="8904303e-622d-4190-a3b0-92add41cda0f"  >
<rect style="stroke: none; stroke-width: 1; stroke-dasharray: none; stroke-linecap: butt; stroke-dashoffset: 0; stroke-linejoin: miter; stroke-miterlimit: 4; fill: rgb(255,255,255); fill-rule: nonzero; opacity: 1; visibility: hidden;" vector-effect="non-scaling-stroke"  x="-540" y="-540" rx="0" ry="0" width="1080" height="1080" />
</g>
<g transform="matrix(-0.3 0 0 -0.3 540 540)"  >
<path style="stroke: rgb(239,68,68); stroke-width: 0; stroke-dasharray: none; stroke-linecap: butt; stroke-dashoffset: 0; stroke-linejoin: miter; stroke-miterlimit: 4; fill: rgb(239,68,68); fill-rule: nonzero; opacity: 1;" vector-effect="non-scaling-stroke"  transform=" translate(-1919.57, -1712.38)" d="M 1127 3129 C 926 3112 743 3025 595 2876 C 478 2758 392 2601 348 2423 C 330 2350 326 2307 326 2175 C 327 2034 330 2003 353 1915 C 427 1636 626 1363 1002 1023 C 1254 795 1815 318 1847 304 C 1888 286 1952 286 1993 304 C 2025 318 2587 796 2838 1023 C 3214 1363 3413 1637 3487 1915 C 3510 2003 3513 2034 3513 2175 C 3514 2307 3510 2351 3492 2423 C 3448 2601 3362 2758 3245 2876 C 3096 3026 2913 3112 2708 3129 C 2426 3151 2209 3065 2005 2848 L 1921 2759 L 1813 2868 C 1691 2991 1605 3047 1475 3091 C 1429 3107 1360 3122 1323 3125 C 1286 3129 1246 3132 1235 3134 C 1224 3135 1175 3133 1127 3129 z M 1309 2939 C 1393 2926 1470 2898 1538 2858 C 1613 2813 1724 2702 1791 2605 C 1855 2511 1891 2491 1957 2513 C 1987 2523 2006 2541 2049 2605 C 2116 2702 2227 2813 2302 2858 C 2561 3012 2900 2963 3117 2738 C 3266 2583 3339 2371 3327 2127 C 3318 1942 3261 1792 3129 1605 C 3053 1499 2837 1274 2650 1106 C 2446 924 1930 485 1919 485 C 1914 485 1745 627 1543 800 C 1125 1157 815 1458 711 1605 C 633 1716 567 1846 539 1942 C 512 2037 502 2225 520 2324 C 566 2586 727 2802 946 2893 C 997 2914 1027 2922 1135 2944 C 1174 2951 1246 2950 1309 2939 z" stroke-linecap="round" />
</g>
<g transform="matrix(NaN NaN NaN NaN 0 0)"  >
<g style=""   >
</g>
</g>
<g transform="matrix(NaN NaN NaN NaN 0 0)"  >
<g style=""   >
</g>
</g>
</svg>