<?xml version="1.0" encoding="UTF-8" standalone="no" ?>
<!DOCTYPE svg PUBLIC "-//W3C//DTD SVG 1.1//EN" "http://www.w3.org/Graphics/SVG/1.1/DTD/svg11.dtd">
<svg xmlns="http://www.w3.org/2000/svg" xmlns:xlink="http://www.w3.org/1999/xlink" version="1.1" width="1080" height="1080" viewBox="0 0 1080 1080" xml:space="preserve">
<desc>Created with Fabric.js 5.2.4</desc>
<defs>
</defs>
<g transform="matrix(1 0 0 1 540 540)" id="2792205f-8726-4acc-b2fd-fe0875146ea5"  >
</g>
<g transform="matrix(1 0 0 1 540 540)" id="dddc6968-9c6f-49a1-bd09-ecf65cba0546"  >
<rect style="stroke: none; stroke-width: 1; stroke-dasharray: none; stroke-linecap: butt; stroke-dashoffset: 0; stroke-linejoin: miter; stroke-miterlimit: 4; fill: rgb(255,255,255); fill-rule: nonzero; opacity: 1; visibility: hidden;" vector-effect="non-scaling-stroke"  x="-540" y="-540" rx="0" ry="0" width="1080" height="1080" />
</g>
<g transform="matrix(4.32 0 0 4.32 539.56 539.53)"  >
<g style="" vector-effect="non-scaling-stroke"   >
		<g transform="matrix(0.13 0 0 -0.13 -50.54 -37.17)"  >
<path style="stroke: none; stroke-width: 1; stroke-dasharray: none; stroke-linecap: butt; stroke-dashoffset: 0; stroke-linejoin: miter; stroke-miterlimit: 4; fill: rgb(51,65,85); fill-rule: nonzero; opacity: 1;" vector-effect="non-scaling-stroke"  transform=" translate(-499.76, -1214.99)" d="M 266 1641 C 151 1526 53 1426 49 1418 C 14 1363 83 1290 142 1321 C 155 1327 225 1391 298 1463 L 430 1595 L 430 1107 C 430 633 431 619 450 600 C 462 588 483 580 504 580 C 572 580 570 568 570 1107 C 570 1373 573 1590 577 1590 C 581 1590 646 1530 720 1456 C 795 1381 866 1318 880 1315 C 918 1306 960 1342 960 1383 C 960 1410 933 1441 743 1632 C 572 1804 520 1850 500 1850 C 479 1850 429 1805 266 1641 z" stroke-linecap="round" />
</g>
		<g transform="matrix(0.13 0 0 -0.13 47.16 32.59)"  >
<path style="stroke: none; stroke-width: 1; stroke-dasharray: none; stroke-linecap: butt; stroke-dashoffset: 0; stroke-linejoin: miter; stroke-miterlimit: 4; fill: rgb(51,65,85); fill-rule: nonzero; opacity: 1;" vector-effect="non-scaling-stroke"  transform=" translate(-1232.54, -691.75)" d="M 1209 1319 C 1195 1314 1178 1298 1171 1284 C 1163 1266 1160 1119 1160 782 L 1160 305 L 1017 448 C 877 588 858 600 815 584 C 799 577 770 530 770 509 C 770 494 1175 81 1208 62 C 1221 55 1241 52 1253 56 C 1280 64 1666 444 1686 483 C 1712 531 1679 590 1627 590 C 1601 590 1575 568 1460 455 C 1385 381 1321 320 1317 320 C 1313 320 1310 530 1310 788 C 1310 1045 1307 1265 1304 1278 C 1299 1296 1252 1333 1238 1329 C 1236 1329 1223 1324 1209 1319 z" stroke-linecap="round" />
</g>
</g>
</g>
<g transform="matrix(NaN NaN NaN NaN 0 0)"  >
<g style=""   >
</g>
</g>
</svg>